Coordinates
version=1
nRows=10
nColumns=33
inDegrees=yes

Units are S.I. units (second, meters, Newtons, ...)
Angles are in degrees.

endheader
time	ground_thorax_rot_x	ground_thorax_rot_y	ground_thorax_rot_z	ground_thorax_tx	ground_thorax_ty	ground_thorax_tz	clav_prot_r	clav_elev_r	scapula_abduction_r	scapula_elevation_r	scapula_upward_rot_r	scapula_winging_r	shoulder_elv_r	plane_of_elev_r	axial_rot_r	elbow_flexion_r	pro_sup_r	wrist_flex_r	wrist_dev_r	clav_prot_l	clav_elev_l	scapula_abduction_l	scapula_elevation_l	scapula_upward_rot_l	scapula_winging_l	shoulder_elv_l	plane_of_elev_l	axial_rot_l	elbow_flexion_l	pro_sup_l	wrist_flex_l	wrist_dev_l
      3.79000000	      2.92921289	      1.91832096	     11.35770601	     -0.12077867	      1.03702114	      0.02659441	      6.54902555	     12.50518178	     21.62919692	      8.17462739	     22.55208415	    -11.62060856	     10.13536908	    -73.28353201	     58.48760980	     50.89949125	    -28.35764036	     70.00000021	    -24.99999983	      9.49030954	     -4.85440439	    -14.02030728	    -21.45515464	    -44.48871607	     -1.80135718	     63.91946278	    -39.80564142	     -5.58504884	     69.18360008	     24.42237155	     -0.77327783	    -24.99999983
      3.80000000	      2.50999816	      2.40820037	     11.16577160	     -0.12033482	      1.03737579	      0.02674768	      5.36642064	     11.91253213	     20.48730916	      7.34590132	     23.65010791	    -11.34693811	      9.48451444	    -73.69407087	     58.82275015	     50.39236764	    -27.89078417	     70.00000021	    -24.99999983	      9.85565392	     -4.52073556	    -14.55965325	    -21.61518977	    -44.16164711	     -1.55236501	     63.56085691	    -39.47115900	     -5.57834506	     68.65002558	     24.57770020	     -2.91437560	    -24.99999983
      3.81000000	      2.52726011	      2.44593464	     11.21425414	     -0.12056489	      1.03706495	      0.02687649	      5.36204442	     11.87094100	     20.47703087	      7.31722663	     23.63126774	    -11.34130395	      9.47051271	    -73.63453902	     58.81322649	     50.42963010	    -27.89296744	     70.00000021	    -24.99999983	      9.83993579	     -4.56881208	    -14.54001883	    -21.57815542	    -44.18083011	     -1.55572352	     63.52952083	    -39.45387405	     -5.58484168	     68.58847641	     24.59009915	     -2.92652924	    -24.99999983
      3.82000000	      2.58509387	      2.50670219	     11.25550536	     -0.12065887	      1.03719323	      0.02725703	      5.33778476	     11.75649530	     20.28804140	      7.29208233	     23.41931676	    -11.25436864	      9.63208004	    -73.44958106	     58.55632294	     50.45009394	    -27.99797314	     70.00000021	    -24.99999983	      9.82473329	     -4.79341447	    -14.51441029	    -21.36141570	    -44.17844657	     -1.54623106	     63.53364932	    -39.37057262	     -5.46907350	     68.09282181	     24.72546227	     -3.08536129	    -24.99999983
      3.83000000	      2.57074386	      2.54599175	     11.35895104	     -0.12085555	      1.03684021	      0.02734748	      5.33213513	     11.73644235	     20.30265214	      7.26823477	     23.44061664	    -11.26273418	      9.63878570	    -73.38503960	     58.54182651	     50.49717159	    -27.99761244	     70.00000021	    -24.99999983	      9.82226715	     -4.82597196	    -14.49850355	    -21.31367655	    -44.14188549	     -1.54370085	     63.55196199	    -39.30592656	     -5.44557313	     68.10556467	     24.72921721	     -3.09905817	    -24.99999983
      3.84000000	      2.61558213	      2.67538125	     11.25897921	     -0.12082333	      1.03670807	      0.02774296	      5.27887645	     11.65554750	     20.00603040	      7.28825506	     23.18406724	    -11.13494973	      9.99580057	    -73.15880435	     58.11975118	     50.90535136	    -28.09131330	     70.00000021	    -24.99999983	      9.82433797	     -5.04694531	    -14.49198220	    -21.08384946	    -44.10358382	     -1.51838448	     63.64061885	    -39.05149916	     -5.15931244	     67.86714277	     24.96698416	     -3.42158229	    -24.99999983
      3.85000000	      2.59110105	      2.69607636	     11.39534567	     -0.12091483	      1.03637820	      0.02784620	      5.27020010	     11.64145501	     20.03576084	      7.26038000	     23.23169713	    -11.15132323	     10.01871789	    -73.08733422	     58.09938008	     50.94248670	    -28.09098688	     70.00000021	    -24.99999983	      9.83063611	     -5.07317021	    -14.48779277	    -21.03754777	    -44.05733972	     -1.51376519	     63.66959935	    -38.98266346	     -5.14289629	     67.88824529	     24.96704180	     -3.43006551	    -24.99999983
      3.86000000	      2.54765371	      2.71036086	     11.52553834	     -0.12094326	      1.03611636	      0.02791791	      5.26467816	     11.63155671	     20.06201791	      7.23901737	     23.27035448	    -11.16451194	     10.03766395	    -73.02208988	     58.08153682	     50.99118189	    -28.08955317	     70.00000021	    -24.99999983	      9.83666782	     -5.10861538	    -14.48131608	    -20.97717496	    -43.99929706	     -1.50114572	     63.70886454	    -38.89814131	     -5.11792731	     67.90572186	     24.96643715	     -3.43958046	    -24.99999983
      3.87000000	      2.59210455	      2.85064639	     11.23221009	     -0.12087739	      1.03589367	      0.02836907	      5.23728897	     11.56888843	     19.82986395	      7.26591153	     23.03604133	    -11.06152993	     10.60353704	    -72.84740077	     57.63619460	     51.75686245	    -28.10621543	     70.00000021	    -24.99999983	      9.91897125	     -5.41016370	    -14.62074472	    -20.67244989	    -43.97084824	     -1.41225801	     63.88925441	    -38.52611506	     -4.81344557	     67.68694321	     25.12285318	     -3.70964418	    -24.99999983
      3.88000000	      2.55346139	      2.84610710	     11.34700333	     -0.12073631	      1.03573500	      0.02845323	      5.23503832	     11.56935029	     19.85447988	      7.25477156	     23.07101357	    -11.07131905	     10.62826852	    -72.80544188	     57.62384398	     51.78377139	    -28.10465506	     70.00000021	    -24.99999983	      9.93252052	     -5.43091200	    -14.62780427	    -20.62869047	    -43.91984014	     -1.39943381	     63.93000816	    -38.46134578	     -4.79661467	     67.70851454	     25.12069754	     -3.71754241	    -24.99999983
